<svg viewBox="200 0 1633.77 1150.51" xmlns="http://www.w3.org/2000/svg">
<path fill="#4B5563" d="m883.45 576.26c0 163.67-131.78 296.35-294.33 296.35s-294.34-132.68-294.34-296.35 131.78-296.36 294.34-296.36 294.33 132.69 294.33 296.36"/>
<path fill="#4B5563" d="m1206.34 576.26c0 154.06-65.89 279-147.17 279s-147.17-124.94-147.17-279 65.88-279 147.16-279 147.17 124.9 147.17 279"/>
<path fill="#4B5563" d="m1338.41 576.26c0 138-23.17 249.94-51.76 249.94s-51.75-111.91-51.75-249.94 23.17-249.94 51.75-249.94 51.76 111.9 51.76 249.94"/>
</svg>